<?xml version="1.0" encoding="UTF-8" standalone="no"?>
<!-- Created with Inkscape (http://www.inkscape.org/) -->

<svg
   version="1.1"
   id="svg1"
   width="2666.6667"
   height="2666.6667"
   viewBox="0 0 2666.6667 2666.6667"
   sodipodi:docname="육진대첫번째로고.ai"
   xmlns:inkscape="http://www.inkscape.org/namespaces/inkscape"
   xmlns:sodipodi="http://sodipodi.sourceforge.net/DTD/sodipodi-0.dtd"
   xmlns="http://www.w3.org/2000/svg"
   xmlns:svg="http://www.w3.org/2000/svg">
  <defs
     id="defs1">
    <clipPath
       clipPathUnits="userSpaceOnUse"
       id="clipPath2">
      <path
         d="M 0,2000 H 2000 V 0 H 0 Z"
         transform="translate(-1089.1671,-1447.0381)"
         id="path2" />
    </clipPath>
    <clipPath
       clipPathUnits="userSpaceOnUse"
       id="clipPath4">
      <path
         d="M 0,2000 H 2000 V 0 H 0 Z"
         transform="translate(-1667.5654,-1515.582)"
         id="path4" />
    </clipPath>
    <clipPath
       clipPathUnits="userSpaceOnUse"
       id="clipPath6">
      <path
         d="M 0,2000 H 2000 V 0 H 0 Z"
         transform="translate(-1456.2228,-1438.5947)"
         id="path6" />
    </clipPath>
    <clipPath
       clipPathUnits="userSpaceOnUse"
       id="clipPath8">
      <path
         d="M 0,2000 H 2000 V 0 H 0 Z"
         transform="translate(-571.11721,-1125.4298)"
         id="path8" />
    </clipPath>
    <clipPath
       clipPathUnits="userSpaceOnUse"
       id="clipPath10">
      <path
         d="M 0,2000 H 2000 V 0 H 0 Z"
         transform="translate(-517.72271,-845.79202)"
         id="path10" />
    </clipPath>
    <clipPath
       clipPathUnits="userSpaceOnUse"
       id="clipPath12">
      <path
         d="M 0,2000 H 2000 V 0 H 0 Z"
         transform="translate(-842.06252,-946.37212)"
         id="path12" />
    </clipPath>
    <clipPath
       clipPathUnits="userSpaceOnUse"
       id="clipPath14">
      <path
         d="M 0,2000 H 2000 V 0 H 0 Z"
         transform="translate(-1612.9297,-916.81935)"
         id="path14" />
    </clipPath>
  </defs>
  <sodipodi:namedview
     id="namedview1"
     pagecolor="#ffffff"
     bordercolor="#000000"
     borderopacity="0.25"
     inkscape:showpageshadow="2"
     inkscape:pageopacity="0.0"
     inkscape:pagecheckerboard="0"
     inkscape:deskcolor="#d1d1d1">
    <inkscape:page
       x="0"
       y="0"
       inkscape:label="1"
       id="page1"
       width="2666.6667"
       height="2666.6667"
       margin="363.452 346.54666 323.86667 301.22134"
       bleed="0" />
  </sodipodi:namedview>
  <g
     id="layer-MC0"
     inkscape:groupmode="layer"
     inkscape:label="New Layer">
    <path
       id="path1"
       d="m 0,0 c 0.497,-27.317 0,-29.553 -7.947,-49.669 l -8.444,-21.109 -1.987,17.383 c -0.993,9.686 -1.241,23.097 -0.496,29.802 1.986,15.895 10.927,61.094 12.914,64.322 C -2.731,45.447 -0.496,28.561 0,0 m -86.424,305.715 c -5.712,-2.733 -12.914,-8.693 -16.639,-14.156 -6.458,-9.686 -8.444,-18.377 -4.222,-18.377 2.731,0 11.672,-17.882 13.907,-27.816 0.993,-3.973 3.477,-6.953 5.96,-6.953 2.235,-0.249 6.706,-2.483 9.935,-4.967 l 5.96,-4.967 -6.457,-9.437 c -6.209,-8.94 -19.123,-50.663 -19.123,-62.087 0,-2.98 -1.739,-8.195 -3.477,-11.176 -1.987,-2.979 -8.692,-17.383 -14.652,-32.285 -6.954,-16.141 -14.653,-30.546 -20.117,-36.507 -6.953,-7.946 -8.94,-11.92 -8.94,-19.619 0,-8.94 -0.993,-10.181 -11.175,-16.39 -11.176,-6.457 -11.425,-6.457 -24.587,-2.732 -7.45,2.234 -17.384,3.973 -22.351,3.973 -9.189,0 -11.921,3.228 -5.215,5.961 5.215,1.986 4.718,11.175 -1.242,24.586 -2.732,6.209 -4.222,12.914 -3.477,14.901 0.994,2.979 -1.242,4.222 -9.934,5.463 -14.9,2.235 -22.848,0 -31.54,-8.692 -11.175,-10.927 -9.934,-20.613 4.222,-33.775 l 11.176,-10.679 -9.934,-6.706 c -7.45,-4.966 -12.417,-10.926 -17.881,-22.598 -3.974,-8.693 -6.705,-16.64 -5.96,-18.13 0.745,-1.241 -2.235,-13.162 -6.457,-26.324 -5.464,-16.888 -7.202,-25.332 -5.464,-28.064 3.725,-5.96 8.195,-6.209 8.195,-0.248 0,2.98 1.242,4.47 2.484,3.725 1.49,-0.993 2.484,1.987 2.484,7.451 0,5.96 2.98,13.162 8.94,22.35 4.967,7.451 9.685,13.66 10.43,13.66 0.497,0 0.249,-5.215 -0.745,-11.672 -2.483,-15.398 -1.738,-80.961 0.994,-82.699 0.993,-0.746 2.732,-9.935 3.477,-20.366 1.242,-14.403 0.745,-21.109 -2.235,-28.062 -4.719,-11.673 -2.98,-16.143 5.96,-16.143 10.927,0 13.411,5.215 14.404,29.305 0.993,23.593 9.189,55.878 11.424,44.95 0.745,-3.228 2.235,-7.946 3.228,-10.182 1.242,-3.228 0.745,-4.47 -2.235,-4.47 -4.221,0 -5.712,-8.692 -1.738,-10.927 1.242,-0.745 3.477,-6.209 4.967,-12.417 2.98,-11.921 7.45,-15.149 14.156,-10.183 4.221,2.981 4.221,4.222 1.241,16.143 -3.228,12.666 -3.228,12.914 3.477,19.867 6.705,6.954 6.705,7.699 5.215,26.573 -0.993,10.679 -2.483,21.359 -2.98,23.842 -0.993,2.732 0,4.222 2.732,4.222 3.477,0 3.974,1.49 2.732,8.195 -2.98,17.384 -4.471,41.474 -2.98,49.669 1.49,7.45 2.731,8.941 10.43,10.183 4.719,0.993 9.189,3.228 9.934,4.967 0.745,1.986 4.47,3.973 8.444,4.718 3.725,0.993 11.672,5.96 17.384,11.424 5.96,5.464 13.163,11.672 16.391,13.907 3.229,2.236 5.96,6.209 5.96,9.438 0,8.195 10.927,29.802 20.365,40.48 12.417,14.156 17.384,21.855 31.043,48.676 l 12.417,23.841 5.216,-9.189 c 5.711,-10.182 7.202,-30.546 3.228,-51.656 C -53.146,88.66 -57.864,10.183 -56.126,0 c 0.745,-4.967 0.497,-15.646 -0.745,-23.593 -1.49,-8.443 -1.49,-20.364 -0.497,-27.566 1.242,-7.202 2.483,-26.076 2.732,-42.219 l 0.745,-29.057 -29.801,-8.443 c -16.143,-4.719 -52.402,-15.149 -80.465,-23.345 -65.563,-19.123 -100.332,-29.304 -140.315,-40.728 l -32.285,-9.438 0.745,-33.775 c 0.496,-18.626 1.49,-34.272 1.987,-34.769 0.993,-0.993 10.678,1.491 63.08,16.888 l 40.977,12.169 0.745,-25.331 c 0.744,-24.586 0.496,-25.331 -8.444,-42.467 -19.868,-38.246 -65.067,-90.646 -101.325,-117.22 -8.196,-6.209 -15.398,-11.423 -15.895,-11.671 -0.248,-0.497 4.719,-6.209 11.424,-12.914 6.457,-6.707 17.136,-18.13 23.593,-25.581 l 11.673,-13.162 17.881,14.405 c 37.252,30.049 86.92,85.182 105.298,116.473 2.235,4.223 4.222,3.726 24.835,-8.195 33.527,-19.371 95.365,-43.957 97.103,-38.742 0.994,2.732 24.338,45.199 33.775,60.845 l 6.954,11.672 -28.808,9.189 c -31.54,9.934 -66.06,26.573 -82.451,40.232 l -10.679,8.444 v 29.305 29.056 l 51.159,14.652 50.911,14.654 -0.497,15.893 -0.496,15.895 9.934,6.457 c 12.666,7.947 15.397,16.638 16.142,46.688 0.248,21.607 0.248,21.607 1.987,7.202 0.745,-8.195 2.484,-16.887 3.477,-19.371 2.484,-5.463 12.914,-8.195 17.384,-4.47 2.98,2.484 3.726,0.746 4.967,-10.182 1.242,-12.169 6.457,-259.77 6.457,-302.983 0,-16.887 0.497,-19.371 4.47,-19.122 2.236,0 21.11,4.719 41.474,10.679 l 37.252,10.679 -0.745,54.388 c -0.248,29.801 -2.235,108.527 -4.222,174.835 -1.987,66.309 -3.725,123.428 -3.725,127.402 0,4.471 -1.242,6.706 -3.725,6.706 -2.235,0 -19.62,-4.471 -38.742,-10.183 -19.371,-5.464 -35.514,-9.437 -36.259,-8.692 -0.745,0.745 0.745,6.209 3.726,11.921 15.645,32.285 22.847,52.152 25.083,69.04 4.469,31.54 10.181,81.458 10.181,88.411 0,3.726 1.739,8.94 3.974,11.176 3.726,4.221 3.726,6.954 -2.235,36.259 -3.477,17.383 -7.202,38.493 -7.947,46.688 l -1.739,14.653 8.444,-6.457 c 4.47,-3.477 8.941,-8.94 9.934,-12.169 0.993,-3.228 3.974,-13.411 6.954,-22.351 5.463,-17.881 5.96,-26.076 3.477,-54.388 -0.994,-12.417 -0.745,-17.881 0.993,-16.143 1.49,1.491 2.98,4.719 3.725,7.451 0.745,2.732 1.242,0 0.994,-6.209 -0.249,-12.913 3.228,-13.908 12.417,-3.477 8.195,8.941 9.189,16.64 4.718,34.521 -2.235,8.692 -3.973,21.357 -3.973,27.814 0,14.156 -6.208,44.702 -9.934,49.173 -1.241,1.49 -5.712,9.436 -9.685,17.384 -7.451,14.652 -36.259,46.441 -47.434,52.153 -5.216,2.732 -23.097,4.967 -53.147,6.953 -5.215,0.249 -7.947,2.236 -9.685,6.705 -10.679,26.823 -13.659,31.54 -22.352,35.514 -10.926,5.216 -12.914,5.216 -25.827,-0.496"
       style="fill:#0d0909;fill-opacity:1;fill-rule:evenodd;stroke:none"
       transform="matrix(1.3333333,0,0,-1.3333333,1452.2227,737.28253)"
       clip-path="url(#clipPath2)" />
    <path
       id="path3"
       d="m 0,0 -36.01,-10.679 v -27.07 c 0,-14.9 0.993,-56.623 1.987,-92.881 l 1.987,-65.811 -20.613,-5.713 c -11.424,-2.98 -21.855,-5.463 -23.345,-5.463 -1.986,0 -3.229,18.377 -4.47,61.59 -2.235,90.149 -3.974,119.702 -7.202,119.702 -1.49,0 -18.874,-4.718 -38.494,-10.43 l -36.01,-10.431 1.738,-48.675 c 1.491,-47.932 3.726,-124.919 9.189,-337.751 1.49,-60.845 2.98,-110.763 3.228,-111.011 0.249,-0.249 18.13,4.719 39.488,10.927 l 39.239,11.673 -1.49,33.526 c -3.229,77.484 -5.961,202.65 -4.222,204.141 0.993,0.993 11.424,4.47 23.593,7.947 l 21.605,6.208 v -10.43 c 0,-23.842 5.216,-200.664 6.457,-219.042 l 1.491,-20.116 37.251,10.68 c 20.614,5.96 37.998,11.423 38.743,12.169 1.49,1.489 -8.941,375.002 -13.411,475.086 C 39.983,-3.974 38.494,10.927 37.5,10.679 36.755,10.679 19.868,5.712 0,0"
       style="fill:#0d0909;fill-opacity:1;fill-rule:evenodd;stroke:none"
       transform="matrix(1.3333333,0,0,-1.3333333,2223.4205,645.89067)"
       clip-path="url(#clipPath4)" />
    <path
       id="path5"
       d="m 0,0 c -0.496,-0.497 -22.103,-7.202 -48.179,-14.652 -104.802,-30.547 -144.041,-41.971 -144.538,-42.468 -0.496,-0.248 0.994,-52.401 2.981,-115.978 1.987,-63.328 4.966,-160.431 6.457,-215.812 1.49,-55.381 3.228,-101.077 3.725,-101.573 2.235,-2.733 121.193,33.278 158.693,48.178 15.149,5.712 35.513,14.405 45.448,18.874 l 18.377,8.196 -1.49,11.424 c -0.745,6.208 -2.235,22.103 -2.98,35.513 -0.993,13.163 -2.235,24.09 -2.732,24.09 -0.496,0 -8.692,-3.974 -18.129,-8.692 -16.391,-8.196 -96.607,-36.258 -113.494,-39.736 l -8.196,-1.738 v 20.861 c 0,11.424 -1.738,75.994 -3.725,143.544 -1.739,67.55 -2.98,123.18 -2.732,123.428 1.242,1.242 65.067,20.116 91.64,26.822 l 26.573,6.953 V -60.1 C 7.699,-37.997 4.471,0.993 2.732,0.993 1.738,0.993 0.497,0.497 0,0"
       style="fill:#0d0909;fill-opacity:1;fill-rule:evenodd;stroke:none"
       transform="matrix(1.3333333,0,0,-1.3333333,1941.6303,748.5404)"
       clip-path="url(#clipPath6)" />
    <path
       id="path7"
       d="m 0,0 c 8.94,-8.691 8.443,-24.586 -0.994,-37.5 -10.678,-14.652 -29.553,-24.338 -74.752,-37.748 -105.547,-32.037 -131.127,-37.004 -145.779,-29.554 -15.646,8.196 -16.888,29.305 -2.483,45.696 10.182,11.672 33.526,22.351 76.242,35.265 C -43.461,7.451 -12.417,12.418 0,0 M -17.633,78.229 C -48.428,74.008 -135.597,50.415 -187.501,32.285 -256.293,8.196 -301.244,-28.062 -314.903,-70.53 c -4.719,-14.653 -5.712,-45.944 -1.739,-59.852 7.947,-28.559 31.788,-45.695 67.302,-48.676 32.037,-2.731 75.497,5.961 176.078,35.266 81.209,23.841 120.696,47.186 147.269,87.418 14.901,22.351 20.116,40.48 18.626,66.06 -1.242,23.096 -6.705,36.01 -20.861,49.669 -17.136,16.639 -52.649,24.089 -89.405,18.874"
       style="fill:#0d0909;fill-opacity:1;fill-rule:evenodd;stroke:none"
       transform="matrix(1.3333333,0,0,-1.3333333,761.4896,1166.0937)"
       clip-path="url(#clipPath8)" />
    <path
       id="path9"
       d="m 0,0 c -0.745,-0.993 -24.09,-8.195 -52.153,-15.894 -28.063,-7.947 -52.401,-14.901 -54.139,-15.646 -2.484,-0.745 -2.98,3.974 -2.484,22.103 l 0.745,22.848 53.395,15.398 L -1.242,43.958 0,22.848 C 0.745,11.176 0.745,0.745 0,0 M 137.832,154.224 C 86.921,139.074 -154.472,69.785 -268.214,37.501 l -23.593,-6.706 0.994,-33.278 c 0.496,-18.377 1.241,-33.527 1.489,-34.024 0.497,-0.496 22.352,5.464 48.428,13.162 26.325,7.451 48.179,13.411 48.428,13.163 0.496,-0.497 1.241,-10.43 1.738,-22.599 l 0.993,-21.607 -12.417,-3.724 c -6.954,-1.988 -22.103,-6.209 -33.775,-9.438 l -21.11,-5.96 0.746,-34.52 c 0.496,-19.123 1.241,-34.769 1.49,-35.017 0.745,-0.745 151.988,42.219 289.323,82.45 16.888,4.968 31.043,8.693 31.292,8.197 0.496,-0.497 1.738,-22.849 2.731,-49.918 0.994,-26.822 2.484,-48.924 3.229,-48.924 0.745,0 19.123,5.215 40.728,11.672 l 39.488,11.672 -1.738,75.994 c -1.491,73.758 -2.484,91.888 -5.216,91.888 -1.242,0 -30.05,-8.196 -58.61,-16.391 -3.973,-1.241 -4.47,0.994 -4.47,21.854 v 23.097 l 49.172,13.907 48.925,13.659 0.745,18.626 c 1.242,28.56 -1.49,49.421 -6.457,49.173 -2.235,0 -18.626,-4.471 -36.507,-9.685"
       style="fill:#0d0909;fill-opacity:1;fill-rule:evenodd;stroke:none"
       transform="matrix(1.3333333,0,0,-1.3333333,690.29693,1538.944)"
       clip-path="url(#clipPath10)" />
    <path
       id="path11"
       d="m 0,0 c -21.854,-5.96 -39.983,-11.424 -40.48,-11.672 -0.249,-0.497 0,-38.99 0.993,-85.928 l 1.49,-85.182 6.457,1.241 c 3.477,0.497 30.547,7.947 59.852,16.392 102.318,29.552 138.329,39.983 234.687,67.301 53.146,15.149 97.352,28.312 97.849,28.808 0.993,0.993 0.496,71.027 -0.497,72.269 -0.248,0.249 -15.646,-3.974 -34.024,-9.437 -56.126,-16.64 -194.952,-56.623 -238.412,-69.04 l -40.977,-11.673 -1.739,11.176 c -0.745,6.209 -1.738,28.559 -1.738,49.421 -0.249,20.612 -0.994,37.749 -1.987,37.5 C 40.232,11.176 21.606,6.209 0,0"
       style="fill:#0d0909;fill-opacity:1;fill-rule:evenodd;stroke:none"
       transform="matrix(1.3333333,0,0,-1.3333333,1122.75,1404.8372)"
       clip-path="url(#clipPath12)" />
    <path
       id="path13"
       d="m 0,0 c -208.114,-62.583 -501.66,-150.001 -619.624,-185.018 -133.61,-39.487 -227.237,-67.302 -268.214,-79.471 -21.854,-6.457 -55.878,-16.639 -75.745,-22.351 -19.868,-5.712 -53.892,-15.894 -75.746,-22.599 -21.855,-6.457 -64.818,-19.372 -95.613,-28.312 -30.795,-9.188 -87.17,-25.828 -125.415,-37.252 -38.246,-11.424 -78.975,-23.345 -90.398,-26.324 -11.424,-3.229 -19.868,-5.961 -18.378,-6.457 1.242,-0.497 48.179,10.43 104.057,24.089 55.878,13.907 126.657,31.292 157.451,38.742 30.795,7.699 103.313,25.58 161.426,39.735 58.113,14.405 141.805,35.017 186.259,45.945 44.454,10.926 114.239,28.063 155.216,38.245 40.978,10.182 98.097,24.09 126.658,31.043 68.046,16.639 284.852,70.282 419.456,103.56 l 106.293,26.573 36.009,46.69 C 103.56,12.666 119.454,34.023 118.957,34.521 118.461,35.017 64.818,19.371 0,0"
       style="fill:#0d0909;fill-opacity:1;fill-rule:evenodd;stroke:none"
       transform="matrix(1.3333333,0,0,-1.3333333,2150.5729,1444.2409)"
       clip-path="url(#clipPath14)" />
    <text
       id="text14"
       xml:space="preserve"
       transform="matrix(1.2964534,-0.31142648,0.31142648,1.2964534,491.73987,2239.6761)"><tspan
         id="tspan14"
         style="font-variant:normal;font-weight:bold;font-stretch:normal;font-size:175.037px;font-family:KBO-Dia-Gothic-Bold;writing-mode:lr-tb;fill:#231f20;fill-opacity:1;fill-rule:nonzero;stroke:none"
         x="0"
         y="0">육아에 진심인 대디</tspan></text>
  </g>
  <g
     id="layer-MC1"
     inkscape:groupmode="layer"
     inkscape:label="MasterLayer 1" />
</svg>
